<svg width="50" height="50" viewBox="0 0 50 50" fill="none" xmlns="http://www.w3.org/2000/svg">
<g clip-path="url(#clip0_402_140)">
<path d="M9.76563e-05 4.34784H0V45.6521H9.76563e-05V25.0001V4.34784Z" fill="#FF9811"/>
<path d="M24.9999 49.9999C38.807 49.9999 49.9998 38.8071 49.9998 25C49.9998 11.193 38.807 0.00012207 24.9999 0.00012207C11.1928 0.00012207 0 11.193 0 25C0 38.8071 11.1928 49.9999 24.9999 49.9999Z" fill="#F0F0F0"/>
<path d="M25.0001 0.000183105C16.8212 0.000183105 9.56006 3.92821 4.99902 10.0002H45.0011C40.4401 3.92811 33.1789 0.000183105 25.0001 0.000183105V0.000183105Z" fill="#0052B4"/>
<path d="M25.0001 49.9999C33.179 49.9999 40.4401 46.0719 45.0012 39.9999H4.99902C9.55996 46.0719 16.8212 49.9999 25.0001 49.9999Z" fill="#0052B4"/>
<path d="M0.00012207 25.0001C0.00012207 26.7125 0.172778 28.3845 0.500806 30.0001H49.4995C49.8276 28.3845 50.0001 26.7125 50.0001 25.0001C50.0001 23.2877 49.8275 21.6156 49.4995 20.0001H0.500806C0.172778 21.6156 0.00012207 23.2877 0.00012207 25.0001V25.0001Z" fill="#0052B4"/>
<path d="M7.32236 7.32245C-2.44062 17.0854 -2.44062 32.9146 7.32236 42.6778C11.3568 38.6433 15.2369 34.7632 25 25.0002L7.32236 7.32245Z" fill="#D80027"/>
<path d="M10.1183 18.4784L11.7368 23.4603H16.9757L12.7377 26.5396L14.3562 31.5217L10.1183 28.4426L5.88007 31.5217L7.49901 26.5396L3.26093 23.4603H8.4994L10.1183 18.4784Z" fill="#F0F0F0"/>
</g>
<defs>
<clipPath id="clip0_402_140">
<rect width="50" height="50" fill="white"/>
</clipPath>
</defs>
</svg>
